<svg width="503.418" height="74.903" viewBox="0 0 503.418 74.903" xmlns="http://www.w3.org/2000/svg"><g id="svgGroup" stroke-linecap="round" fill-rule="evenodd" font-size="9pt" stroke="#000" stroke-width="0.1" fill="#000"><path d="M 141.211 72.852 L 141.211 72.461 Q 141.504 70.02 141.992 67.822 Q 142.48 65.625 143.066 63.477 A 105.564 105.564 0 0 1 144.028 60.172 A 118.691 118.691 0 0 1 144.385 59.033 Q 145.117 56.738 145.996 53.809 L 145.996 53.32 A 39.919 39.919 0 0 1 144.397 54.195 Q 142.057 55.402 140.801 55.547 A 2.822 2.822 0 0 1 140.479 55.566 A 3.278 3.278 0 0 1 139.888 55.518 Q 138.857 55.328 138.818 54.395 A 2.379 2.379 0 0 1 138.816 54.296 Q 138.816 53.141 139.893 51.27 Q 141.016 49.316 142.627 47.656 A 17.005 17.005 0 0 1 144.367 46.085 A 13.322 13.322 0 0 1 145.947 45.02 A 5.901 5.901 0 0 1 146.522 44.729 Q 147.621 44.252 148.366 44.577 A 1.532 1.532 0 0 1 148.633 44.727 A 5.79 5.79 0 0 1 149.387 44.773 Q 150.056 44.861 150.537 45.117 Q 151.096 45.415 151.74 45.941 A 12.688 12.688 0 0 1 152.148 46.289 A 39.019 39.019 0 0 1 154.058 44.882 Q 155.026 44.215 155.932 43.691 A 22.626 22.626 0 0 1 156.348 43.457 A 8.43 8.43 0 0 1 158.867 42.574 A 11.703 11.703 0 0 1 161.035 42.383 A 15.12 15.12 0 0 1 163.459 42.564 Q 164.75 42.774 165.78 43.228 A 6.641 6.641 0 0 1 167.529 44.336 A 8.12 8.12 0 0 1 169.159 46.39 Q 169.724 47.375 170.152 48.623 A 19.18 19.18 0 0 1 170.703 50.586 A 281.988 281.988 0 0 0 172.29 48.987 A 216.551 216.551 0 0 0 173.73 47.51 A 16.288 16.288 0 0 1 176.709 45.068 Q 178.32 44.043 180.176 43.506 A 13.245 13.245 0 0 1 182.351 43.079 A 17.776 17.776 0 0 1 184.375 42.969 A 5.499 5.499 0 0 1 186.882 43.592 A 7.76 7.76 0 0 1 188.184 44.434 A 10.461 10.461 0 0 1 189.602 45.771 A 7.54 7.54 0 0 1 190.82 47.656 L 190.82 49.414 L 190.82 51.27 A 25.887 25.887 0 0 1 190.039 57.666 A 25.489 25.489 0 0 0 189.258 63.965 A 11.742 11.742 0 0 0 189.548 66.527 A 13.094 13.094 0 0 0 189.6 66.748 Q 189.933 68.128 191.61 68.163 A 4.232 4.232 0 0 0 191.699 68.164 A 9.706 9.706 0 0 0 194.449 67.785 A 8.575 8.575 0 0 0 195.947 67.188 A 17.187 17.187 0 0 0 199.463 64.795 A 23.759 23.759 0 0 0 202.393 61.719 A 7140.733 7140.733 0 0 0 203.662 60.12 A 5616.917 5616.917 0 0 0 204.834 58.643 Q 205.957 57.227 206.934 56.25 A 4.403 4.403 0 0 1 207.529 55.746 Q 207.884 55.498 208.24 55.381 A 2.047 2.047 0 0 1 208.887 55.273 Q 209.57 55.273 210.4 55.811 A 2.329 2.329 0 0 1 210.82 56.151 Q 211.08 56.422 211.175 56.742 A 1.347 1.347 0 0 1 211.23 57.129 A 0.581 0.581 0 0 1 211.227 57.192 Q 211.217 57.281 211.182 57.422 Q 211.133 57.617 211.133 57.715 A 22.562 22.562 0 0 1 208.301 63.477 Q 206.445 66.211 204.004 68.311 A 19.74 19.74 0 0 1 198.584 71.631 A 16.448 16.448 0 0 1 192.285 72.852 A 19.566 19.566 0 0 1 189.993 72.725 Q 188.843 72.589 187.865 72.308 A 10.188 10.188 0 0 1 187.012 72.021 Q 184.863 71.191 183.691 68.164 A 7.179 7.179 0 0 0 183.689 68.001 Q 183.681 67.648 183.643 66.849 A 21.906 21.906 0 0 0 183.643 66.846 A 178.618 178.618 0 0 1 183.626 66.49 Q 183.6 65.909 183.595 65.699 A 3.439 3.439 0 0 1 183.594 65.625 A 34.171 34.171 0 0 1 184.216 59.032 A 31.573 31.573 0 0 1 184.326 58.496 A 32.999 32.999 0 0 0 185.059 51.562 A 6.884 6.884 0 0 0 185.056 51.402 Q 185.05 51.137 185.026 50.628 A 106.976 106.976 0 0 0 185.01 50.293 Q 184.97 49.495 184.963 49.154 A 6.237 6.237 0 0 1 184.961 49.023 A 1.227 1.227 0 0 0 184.342 48.616 Q 184.135 48.553 183.884 48.539 A 2.631 2.631 0 0 0 183.74 48.535 L 182.227 48.535 A 5.853 5.853 0 0 0 179.275 49.351 A 7.836 7.836 0 0 0 178.32 50 Q 176.465 51.465 174.902 53.711 A 28.305 28.305 0 0 0 172.833 57.217 A 33.279 33.279 0 0 0 172.119 58.74 A 55.37 55.37 0 0 0 170.02 64.307 Q 169.141 67.09 168.604 69.482 A 39.972 39.972 0 0 0 168.286 71.029 Q 168.16 71.721 168.08 72.323 A 16.407 16.407 0 0 0 167.969 73.438 L 166.895 74.414 L 163.574 74.414 A 1.203 1.203 0 0 1 163.203 74.361 Q 162.815 74.236 162.696 73.81 A 1.497 1.497 0 0 1 162.647 73.486 A 55.925 55.925 0 0 1 162.625 73.05 Q 162.598 72.437 162.598 72.07 Q 162.598 69.727 162.939 67.334 Q 163.281 64.941 163.721 62.549 A 213.318 213.318 0 0 0 164.551 57.715 A 41.116 41.116 0 0 0 165.039 52.93 A 78.092 78.092 0 0 1 164.941 52.112 A 100.678 100.678 0 0 1 164.844 51.221 A 7.329 7.329 0 0 0 164.631 50.066 A 6.222 6.222 0 0 0 164.453 49.512 A 3.357 3.357 0 0 0 163.574 48.193 Q 163.059 47.721 162.167 47.664 A 3.958 3.958 0 0 0 161.914 47.656 A 8.08 8.08 0 0 0 158.887 48.242 A 11.429 11.429 0 0 0 156.201 49.756 A 10.086 10.086 0 0 0 154.053 52.002 Q 153.125 53.32 152.734 54.883 L 146.875 73.828 L 145.996 74.805 L 145.41 74.854 A 23.361 23.361 0 0 1 145.136 74.875 Q 144.751 74.902 144.531 74.902 A 10.192 10.192 0 0 1 142.614 74.715 A 11.392 11.392 0 0 1 142.334 74.658 A 1.272 1.272 0 0 1 141.362 73.821 Q 141.211 73.425 141.211 72.852 Z M 326.855 29.98 L 320.605 41.895 L 317.09 49.512 L 317.578 50.586 Q 319.485 48.316 321.476 47.017 A 12.876 12.876 0 0 1 321.777 46.826 A 9.593 9.593 0 0 1 324.279 45.765 Q 325.403 45.457 326.714 45.344 A 17.03 17.03 0 0 1 327.148 45.313 A 3.949 3.949 0 0 1 327.411 45.304 A 3.117 3.117 0 0 1 329.639 46.191 A 7.171 7.171 0 0 1 330.787 47.622 A 9.244 9.244 0 0 1 331.348 48.682 A 15.517 15.517 0 0 1 332.373 51.758 Q 332.707 53.286 332.808 54.253 A 10.632 10.632 0 0 1 332.813 54.297 A 10.541 10.541 0 0 1 332.806 54.633 Q 332.789 55.172 332.722 56.058 A 69.846 69.846 0 0 1 332.715 56.152 Q 332.631 57.243 332.547 58.623 A 229.401 229.401 0 0 0 332.52 59.082 A 106.118 106.118 0 0 0 332.401 61.655 A 120.115 120.115 0 0 0 332.373 62.549 A 26.389 26.389 0 0 0 332.363 63.262 Q 332.363 64.668 332.52 65.918 A 8.567 8.567 0 0 0 332.799 67.286 A 6.298 6.298 0 0 0 333.35 68.604 A 3.179 3.179 0 0 0 333.838 69.266 A 2.23 2.23 0 0 0 335.059 69.922 A 57.064 57.064 0 0 0 338.553 69.369 Q 340.31 69.032 341.846 68.604 A 19.476 19.476 0 0 0 345.045 67.415 A 15.987 15.987 0 0 0 347.07 66.26 A 13.28 13.28 0 0 0 350.83 62.402 Q 352.249 60.205 353.025 57.064 A 25.188 25.188 0 0 0 353.125 56.641 A 2.184 2.184 0 0 1 354.714 55.686 A 2.991 2.991 0 0 1 355.078 55.664 A 3.049 3.049 0 0 1 355.775 55.738 Q 356.209 55.84 356.509 56.084 A 1.615 1.615 0 0 1 356.982 56.738 A 5.968 5.968 0 0 1 357.406 58.613 A 7.035 7.035 0 0 1 357.422 59.082 Q 357.422 62.988 354.932 65.967 A 19.278 19.278 0 0 1 350.236 69.995 A 22.977 22.977 0 0 1 348.633 70.898 A 35.645 35.645 0 0 1 340.447 73.873 A 38.34 38.34 0 0 1 340.43 73.877 A 41.589 41.589 0 0 1 336.206 74.646 A 30.959 30.959 0 0 1 332.324 74.902 Q 330.745 74.902 329.831 74.171 A 2.874 2.874 0 0 1 329.102 73.291 A 7.964 7.964 0 0 1 328.374 71.386 Q 328.145 70.461 328.076 69.385 A 43.498 43.498 0 0 1 327.988 66.613 A 44.847 44.847 0 0 1 328.027 64.746 A 60.569 60.569 0 0 0 328.062 63.696 Q 328.1 62.13 328.034 61.036 A 17.525 17.525 0 0 0 328.027 60.938 A 7.639 7.639 0 0 0 328.021 60.654 Q 328.005 60.22 327.945 59.5 A 56.079 56.079 0 0 0 327.93 59.326 A 77.973 77.973 0 0 0 327.82 58.167 A 94.11 94.11 0 0 0 327.686 56.934 A 50.446 50.446 0 0 0 327.438 55.084 A 45.198 45.198 0 0 0 327.344 54.492 Q 327.152 53.34 327.149 52.848 A 2.524 2.524 0 0 1 327.148 52.832 A 8.135 8.135 0 0 0 327.036 52.615 Q 326.843 52.258 326.514 51.709 Q 326.262 51.289 325.962 51.11 A 0.909 0.909 0 0 0 325.488 50.977 A 4.75 4.75 0 0 0 323.532 51.418 Q 322.86 51.72 322.182 52.227 A 9.615 9.615 0 0 0 321.729 52.588 Q 319.824 54.199 318.115 56.396 A 33.695 33.695 0 0 0 315.826 59.72 A 29.733 29.733 0 0 0 315.186 60.84 A 29.966 29.966 0 0 0 314.572 62.026 Q 314.044 63.111 313.797 63.9 A 6.173 6.173 0 0 0 313.672 64.355 A 8.219 8.219 0 0 0 313.398 65.606 Q 313.281 66.422 313.281 67.383 A 22.612 22.612 0 0 1 313.166 69.707 A 19.317 19.317 0 0 1 313.037 70.703 Q 312.793 72.266 311.963 73.34 A 2.478 2.478 0 0 1 310.872 74.128 Q 310.449 74.294 309.917 74.363 A 6.441 6.441 0 0 1 309.082 74.414 A 4.676 4.676 0 0 1 308.503 74.381 Q 307.89 74.304 307.553 74.049 A 1.048 1.048 0 0 1 307.373 73.877 A 1.555 1.555 0 0 1 307.124 73.424 Q 306.934 72.906 306.934 72.07 Q 307.583 67.616 308.1 64.661 A 134.931 134.931 0 0 1 308.154 64.355 A 505.422 505.422 0 0 1 308.606 61.847 Q 308.814 60.705 309.005 59.693 A 278.757 278.757 0 0 1 309.131 59.033 A 558.632 558.632 0 0 1 310.01 54.541 Q 310.312 53.03 310.683 51.081 A 649.621 649.621 0 0 0 311.035 49.219 A 155.522 155.522 0 0 0 311.488 46.676 Q 311.683 45.533 311.887 44.253 A 318.263 318.263 0 0 0 312.305 41.553 Q 312.954 37.238 313.868 30.675 A 1874.173 1874.173 0 0 0 313.965 29.98 Q 313.965 28.859 314.079 27.022 A 115.594 115.594 0 0 1 314.16 25.83 A 53.119 53.119 0 0 1 314.513 22.503 A 66.301 66.301 0 0 1 314.893 20.068 A 65.889 65.889 0 0 1 316.309 13.818 A 32.069 32.069 0 0 1 317.507 10.273 A 25.971 25.971 0 0 1 318.506 8.105 A 17.109 17.109 0 0 1 319.928 5.806 A 12.956 12.956 0 0 1 321.582 3.955 Q 323.34 2.344 325.684 2.344 A 3.982 3.982 0 0 1 326.961 2.54 A 3.315 3.315 0 0 1 328.369 3.467 A 7.423 7.423 0 0 1 329.752 5.675 A 8.718 8.718 0 0 1 329.932 6.152 Q 330.469 7.715 330.566 9.424 Q 330.654 10.953 330.663 11.973 A 25.904 25.904 0 0 1 330.664 12.207 A 27.39 27.39 0 0 1 330.444 15.732 A 24.014 24.014 0 0 1 330.273 16.846 A 53.168 53.168 0 0 1 329.297 21.24 Q 328.711 23.438 328.027 25.635 Q 327.344 27.832 326.855 29.98 Z M 469.043 60.059 L 468.555 60.059 Q 468.153 60.46 467.157 61.324 A 103.304 103.304 0 0 1 466.699 61.719 A 444.203 444.203 0 0 0 465.295 62.927 A 522.719 522.719 0 0 0 463.818 64.209 A 144.1 144.1 0 0 1 462.341 65.479 A 119.262 119.262 0 0 1 460.938 66.65 Q 459.57 67.773 458.984 68.164 A 3.644 3.644 0 0 0 458.885 68.216 Q 458.663 68.337 458.113 68.654 A 144.206 144.206 0 0 0 457.861 68.799 A 59.08 59.08 0 0 0 457.003 69.306 Q 456.566 69.569 456.087 69.866 A 100.496 100.496 0 0 0 455.762 70.068 Q 454.59 70.801 453.369 71.436 A 102.839 102.839 0 0 0 452.792 71.738 Q 452.232 72.034 451.815 72.264 A 29.205 29.205 0 0 0 451.465 72.461 L 449.805 73.291 Q 449.364 73.512 448.524 73.533 A 7.26 7.26 0 0 1 448.34 73.535 A 5.382 5.382 0 0 1 446.638 73.246 Q 445.972 73.024 445.281 72.633 A 9.586 9.586 0 0 1 445.068 72.51 A 3.918 3.918 0 0 1 444.095 71.707 A 3.088 3.088 0 0 1 443.359 69.629 L 443.359 59.082 L 444.727 51.953 A 44.69 44.69 0 0 1 445.564 49.117 Q 446.308 46.891 447.168 45.264 A 14.776 14.776 0 0 1 449.257 42.246 A 13.016 13.016 0 0 1 450.586 40.967 A 13.253 13.253 0 0 1 453.963 38.939 A 16.26 16.26 0 0 1 455.518 38.379 A 56.487 56.487 0 0 1 458.235 37.629 Q 459.639 37.276 461.226 36.94 A 101.424 101.424 0 0 1 462.305 36.719 A 1.936 1.936 0 0 1 462.409 36.672 Q 462.701 36.548 463.574 36.23 A 82.232 82.232 0 0 0 463.946 36.094 Q 464.587 35.858 464.791 35.767 A 1.335 1.335 0 0 0 464.844 35.742 L 466.211 35.742 A 6.105 6.105 0 0 1 467.818 35.947 A 5.176 5.176 0 0 1 468.994 36.426 A 12.03 12.03 0 0 1 470.575 37.491 A 14.643 14.643 0 0 1 471.387 38.184 L 476.27 17.285 Q 476.093 16.316 476.235 14.671 A 22.555 22.555 0 0 1 476.27 14.307 A 23.566 23.566 0 0 1 476.969 10.571 A 25.85 25.85 0 0 1 477.002 10.449 Q 477.521 8.561 478.36 7.221 A 8.825 8.825 0 0 1 478.418 7.129 Q 479.297 5.762 480.469 5.762 A 3.197 3.197 0 0 1 481.514 5.925 A 2.642 2.642 0 0 1 482.764 6.836 Q 483.594 7.91 483.301 9.57 L 478.027 41.504 A 44.024 44.024 0 0 0 475.603 49.115 A 40.511 40.511 0 0 0 475.439 49.902 Q 474.609 54.102 474.609 58.594 A 28.967 28.967 0 0 0 474.902 62.695 A 12.851 12.851 0 0 0 475.478 65.106 A 10.95 10.95 0 0 0 476.025 66.406 A 7.083 7.083 0 0 0 478.32 69.092 Q 479.643 70.018 481.683 70.108 A 10.149 10.149 0 0 0 482.129 70.117 A 29.005 29.005 0 0 0 492.383 68.213 A 30.183 30.183 0 0 0 500.75 63.498 A 28.596 28.596 0 0 0 501.367 62.988 A 1.257 1.257 0 0 0 501.469 62.984 Q 501.571 62.976 501.637 62.95 A 0.303 0.303 0 0 0 501.66 62.939 Q 501.748 62.895 501.916 62.891 A 1.452 1.452 0 0 1 501.953 62.891 A 2.071 2.071 0 0 1 503.32 63.379 Q 503.32 63.574 503.369 63.965 A 10.5 10.5 0 0 1 503.391 64.148 Q 503.418 64.404 503.418 64.551 A 3.898 3.898 0 0 1 502.79 66.651 A 5.56 5.56 0 0 1 502.148 67.48 A 12.157 12.157 0 0 1 500.645 68.838 Q 499.872 69.433 498.937 69.984 A 19.89 19.89 0 0 1 498.877 70.02 A 26.386 26.386 0 0 1 495.654 71.613 A 30.513 30.513 0 0 1 494.482 72.07 A 68.259 68.259 0 0 1 489.697 73.633 A 38.473 38.473 0 0 1 487.39 74.219 A 29.216 29.216 0 0 1 485.254 74.609 Q 483.564 74.851 482.47 74.893 A 11.351 11.351 0 0 1 482.031 74.902 A 17.308 17.308 0 0 1 479.626 74.744 Q 478.338 74.563 477.258 74.175 A 9.263 9.263 0 0 1 476.318 73.779 A 10.284 10.284 0 0 1 472.51 70.605 A 14.47 14.47 0 0 1 470.562 66.934 A 17.025 17.025 0 0 1 470.215 65.869 A 35.341 35.341 0 0 1 469.333 62.015 A 42.301 42.301 0 0 1 469.043 60.059 Z M 21.973 73.438 L 21.973 63.867 L 26.758 6.738 L 27.344 5.859 L 2.539 3.906 A 3.764 3.764 0 0 1 1.222 3.499 A 4.622 4.622 0 0 1 0.83 3.271 A 1.895 1.895 0 0 1 0.308 2.785 Q 0.029 2.393 0.003 1.868 A 2.213 2.213 0 0 1 0 1.758 Q 0 1.074 0.244 0.732 A 1.485 1.485 0 0 1 0.437 0.517 Q 0.699 0.27 1.172 0 L 5.371 0 A 641.688 641.688 0 0 1 31.592 0.537 A 2379.236 2379.236 0 0 0 57.813 1.465 A 5.613 5.613 0 0 1 58.838 2.588 A 2.572 2.572 0 0 1 59.161 3.214 A 2.113 2.113 0 0 1 59.277 3.906 Q 59.277 4.547 58.547 5.317 A 5.395 5.395 0 0 1 58.447 5.42 A 4.488 4.488 0 0 1 58.017 5.802 Q 57.514 6.189 57.071 6.242 A 1.17 1.17 0 0 1 56.934 6.25 L 31.836 6.25 A 70.909 70.909 0 0 1 31.385 14.371 A 63.205 63.205 0 0 1 31.152 16.162 A 139.321 139.321 0 0 0 30.321 23.248 A 161.72 161.72 0 0 0 30.078 26.172 A 10.942 10.942 0 0 0 30.035 26.595 Q 29.959 27.498 29.883 29.443 Q 29.799 31.583 29.643 34.3 A 400.831 400.831 0 0 1 29.59 35.205 A 905.136 905.136 0 0 0 29.395 38.586 A 1092.687 1092.687 0 0 0 29.199 42.188 A 1092.687 1092.687 0 0 1 29.004 45.789 A 905.136 905.136 0 0 1 28.809 49.17 Q 28.641 51.981 28.473 54.216 A 217.988 217.988 0 0 1 28.418 54.932 A 161.272 161.272 0 0 0 28.342 55.939 Q 28.251 57.205 28.229 57.86 A 10.738 10.738 0 0 0 28.223 58.203 A 4.643 4.643 0 0 0 28.196 58.5 Q 28.161 59.081 28.224 59.975 A 24.885 24.885 0 0 0 28.272 60.547 A 82.363 82.363 0 0 1 28.436 62.576 A 97.766 97.766 0 0 1 28.516 63.867 A 25.774 25.774 0 0 1 28.555 65.297 A 29.111 29.111 0 0 1 28.467 67.529 A 20.416 20.416 0 0 1 28.18 69.741 A 16.701 16.701 0 0 1 27.881 71.045 A 6.665 6.665 0 0 1 27.435 72.241 Q 27.069 72.984 26.537 73.514 A 4.207 4.207 0 0 1 26.465 73.584 A 3.322 3.322 0 0 1 24.648 74.457 A 4.622 4.622 0 0 1 23.926 74.512 Q 23.766 74.512 23.375 74.479 A 27.523 27.523 0 0 1 23.193 74.463 A 51.649 51.649 0 0 0 23.007 74.446 Q 22.638 74.414 22.559 74.414 L 21.973 73.438 Z M 111.23 35.742 L 112.988 35.742 Q 114.932 35.742 116.276 36.502 A 4.92 4.92 0 0 1 116.553 36.67 A 6.874 6.874 0 0 1 118.799 39.063 A 10.059 10.059 0 0 1 119.74 41.37 A 12.122 12.122 0 0 1 119.971 42.383 A 20.444 20.444 0 0 1 120.313 46.094 A 22.447 22.447 0 0 1 119.775 51.025 A 148.322 148.322 0 0 1 118.604 55.859 Q 117.969 58.301 117.432 60.693 A 22.574 22.574 0 0 0 116.903 65.047 A 25.434 25.434 0 0 0 116.895 65.723 L 116.895 66.309 A 0.765 0.765 0 0 1 116.936 66.418 Q 117.001 66.625 117.083 67.096 A 21.031 21.031 0 0 1 117.139 67.432 A 21.264 21.264 0 0 0 117.192 67.754 Q 117.303 68.391 117.382 68.552 A 0.342 0.342 0 0 0 117.383 68.555 Q 117.566 68.555 118.261 68.597 A 93.602 93.602 0 0 1 118.359 68.604 A 80.657 80.657 0 0 0 118.632 68.62 Q 119.134 68.65 119.308 68.652 A 2.057 2.057 0 0 0 119.336 68.652 A 36.242 36.242 0 0 0 121.24 68.604 A 5.623 5.623 0 0 0 122.539 68.375 A 6.865 6.865 0 0 0 123.145 68.164 L 141.699 59.57 A 0.651 0.651 0 0 0 141.757 59.567 Q 141.857 59.558 142.041 59.521 A 5.124 5.124 0 0 1 142.151 59.501 Q 142.302 59.474 142.376 59.473 A 0.422 0.422 0 0 1 142.383 59.473 A 2.671 2.671 0 0 1 143.146 59.577 A 2.127 2.127 0 0 1 143.994 60.059 A 1.942 1.942 0 0 1 144.61 61.297 A 2.721 2.721 0 0 1 144.629 61.621 A 8.769 8.769 0 0 1 144.604 62.298 A 7.557 7.557 0 0 1 144.58 62.549 A 0.981 0.981 0 0 1 144.421 62.976 Q 144.333 63.112 144.198 63.243 A 2.199 2.199 0 0 1 144.043 63.379 Q 143.371 63.859 141.612 64.717 A 57.054 57.054 0 0 1 141.553 64.746 A 131.127 131.127 0 0 0 139.685 65.674 A 162.165 162.165 0 0 0 137.695 66.699 A 367.281 367.281 0 0 0 135.706 67.749 A 306.913 306.913 0 0 0 133.838 68.75 A 58.651 58.651 0 0 1 132.999 69.196 Q 131.862 69.786 131.276 70.01 A 5.151 5.151 0 0 1 131.25 70.02 A 20.497 20.497 0 0 1 129.281 71.003 A 24.616 24.616 0 0 1 128.223 71.436 A 83.553 83.553 0 0 1 124.805 72.656 A 29.201 29.201 0 0 1 121.766 73.495 A 26.708 26.708 0 0 1 121.338 73.584 Q 119.779 73.896 118.505 73.923 A 11.304 11.304 0 0 1 118.262 73.926 Q 116.629 73.926 115.448 73.503 A 5.181 5.181 0 0 1 114.746 73.193 Q 113.379 72.461 112.695 71.24 Q 112.012 70.02 111.768 68.311 A 13.732 13.732 0 0 1 111.632 66.366 A 15.474 15.474 0 0 1 111.719 64.746 A 454.739 454.739 0 0 1 109.692 66.357 A 553.63 553.63 0 0 1 107.52 68.066 A 45.998 45.998 0 0 1 102.832 71.289 Q 100.391 72.754 97.852 73.828 A 13.169 13.169 0 0 1 92.676 74.902 Q 91.211 74.902 90.039 74.17 A 3.667 3.667 0 0 1 88.729 72.73 A 5.115 5.115 0 0 1 88.379 71.875 L 88.379 70.41 L 88.379 68.848 Q 86.719 62.988 87.939 57.324 A 27.857 27.857 0 0 1 92.334 47.119 Q 95.508 42.578 100.439 39.502 Q 105.371 36.426 111.23 35.742 Z M 276.563 35.742 L 278.32 35.742 Q 280.264 35.742 281.608 36.502 A 4.92 4.92 0 0 1 281.885 36.67 A 6.874 6.874 0 0 1 284.131 39.063 A 10.059 10.059 0 0 1 285.072 41.37 A 12.122 12.122 0 0 1 285.303 42.383 A 20.444 20.444 0 0 1 285.645 46.094 A 22.447 22.447 0 0 1 285.107 51.025 A 148.322 148.322 0 0 1 283.936 55.859 Q 283.301 58.301 282.764 60.693 A 22.574 22.574 0 0 0 282.236 65.047 A 25.434 25.434 0 0 0 282.227 65.723 L 282.227 66.309 A 0.765 0.765 0 0 1 282.268 66.418 Q 282.333 66.625 282.415 67.096 A 21.031 21.031 0 0 1 282.471 67.432 A 21.264 21.264 0 0 0 282.524 67.754 Q 282.635 68.391 282.714 68.552 A 0.342 0.342 0 0 0 282.715 68.555 Q 282.898 68.555 283.593 68.597 A 93.602 93.602 0 0 1 283.691 68.604 A 80.657 80.657 0 0 0 283.964 68.62 Q 284.466 68.65 284.64 68.652 A 2.057 2.057 0 0 0 284.668 68.652 A 36.242 36.242 0 0 0 286.572 68.604 A 5.623 5.623 0 0 0 287.871 68.375 A 6.865 6.865 0 0 0 288.477 68.164 L 307.031 59.57 A 0.651 0.651 0 0 0 307.089 59.567 Q 307.189 59.558 307.373 59.521 A 5.124 5.124 0 0 1 307.483 59.501 Q 307.634 59.474 307.708 59.473 A 0.422 0.422 0 0 1 307.715 59.473 A 2.671 2.671 0 0 1 308.478 59.577 A 2.127 2.127 0 0 1 309.326 60.059 A 1.942 1.942 0 0 1 309.942 61.297 A 2.721 2.721 0 0 1 309.961 61.621 A 8.769 8.769 0 0 1 309.936 62.298 A 7.557 7.557 0 0 1 309.912 62.549 A 0.981 0.981 0 0 1 309.753 62.976 Q 309.665 63.112 309.53 63.243 A 2.199 2.199 0 0 1 309.375 63.379 Q 308.703 63.859 306.944 64.717 A 57.054 57.054 0 0 1 306.885 64.746 A 131.127 131.127 0 0 0 305.017 65.674 A 162.165 162.165 0 0 0 303.027 66.699 A 367.281 367.281 0 0 0 301.038 67.749 A 306.913 306.913 0 0 0 299.17 68.75 A 58.651 58.651 0 0 1 298.331 69.196 Q 297.194 69.786 296.608 70.01 A 5.151 5.151 0 0 1 296.582 70.02 A 20.497 20.497 0 0 1 294.613 71.003 A 24.616 24.616 0 0 1 293.555 71.436 A 83.553 83.553 0 0 1 290.137 72.656 A 29.201 29.201 0 0 1 287.098 73.495 A 26.708 26.708 0 0 1 286.67 73.584 Q 285.111 73.896 283.837 73.923 A 11.304 11.304 0 0 1 283.594 73.926 Q 281.961 73.926 280.78 73.503 A 5.181 5.181 0 0 1 280.078 73.193 Q 278.711 72.461 278.027 71.24 Q 277.344 70.02 277.1 68.311 A 13.732 13.732 0 0 1 276.964 66.366 A 15.474 15.474 0 0 1 277.051 64.746 A 454.739 454.739 0 0 1 275.024 66.357 A 553.63 553.63 0 0 1 272.852 68.066 A 45.998 45.998 0 0 1 268.164 71.289 Q 265.723 72.754 263.184 73.828 A 13.169 13.169 0 0 1 258.008 74.902 Q 256.543 74.902 255.371 74.17 A 3.667 3.667 0 0 1 254.061 72.73 A 5.115 5.115 0 0 1 253.711 71.875 L 253.711 70.41 L 253.711 68.848 Q 252.051 62.988 253.272 57.324 A 27.857 27.857 0 0 1 257.666 47.119 Q 260.84 42.578 265.772 39.502 Q 270.703 36.426 276.563 35.742 Z M 415.137 35.742 L 416.895 35.742 Q 418.838 35.742 420.183 36.502 A 4.92 4.92 0 0 1 420.459 36.67 A 6.874 6.874 0 0 1 422.705 39.063 A 10.059 10.059 0 0 1 423.646 41.37 A 12.122 12.122 0 0 1 423.877 42.383 A 20.444 20.444 0 0 1 424.219 46.094 A 22.447 22.447 0 0 1 423.682 51.025 A 148.322 148.322 0 0 1 422.51 55.859 Q 421.875 58.301 421.338 60.693 A 22.574 22.574 0 0 0 420.81 65.047 A 25.434 25.434 0 0 0 420.801 65.723 L 420.801 66.309 A 0.765 0.765 0 0 1 420.842 66.418 Q 420.907 66.625 420.989 67.096 A 21.031 21.031 0 0 1 421.045 67.432 A 21.264 21.264 0 0 0 421.098 67.754 Q 421.209 68.391 421.288 68.552 A 0.342 0.342 0 0 0 421.289 68.555 Q 421.472 68.555 422.168 68.597 A 93.602 93.602 0 0 1 422.266 68.604 A 80.657 80.657 0 0 0 422.538 68.62 Q 423.04 68.65 423.215 68.652 A 2.057 2.057 0 0 0 423.242 68.652 A 36.242 36.242 0 0 0 425.147 68.604 A 5.623 5.623 0 0 0 426.445 68.375 A 6.865 6.865 0 0 0 427.051 68.164 L 445.605 59.57 A 0.651 0.651 0 0 0 445.663 59.567 Q 445.764 59.558 445.947 59.521 A 5.124 5.124 0 0 1 446.057 59.501 Q 446.208 59.474 446.282 59.473 A 0.422 0.422 0 0 1 446.289 59.473 A 2.671 2.671 0 0 1 447.052 59.577 A 2.127 2.127 0 0 1 447.9 60.059 A 1.942 1.942 0 0 1 448.516 61.297 A 2.721 2.721 0 0 1 448.535 61.621 A 8.769 8.769 0 0 1 448.51 62.298 A 7.557 7.557 0 0 1 448.486 62.549 A 0.981 0.981 0 0 1 448.328 62.976 Q 448.24 63.112 448.104 63.243 A 2.199 2.199 0 0 1 447.949 63.379 Q 447.277 63.859 445.518 64.717 A 57.054 57.054 0 0 1 445.459 64.746 A 131.127 131.127 0 0 0 443.591 65.674 A 162.165 162.165 0 0 0 441.602 66.699 A 367.281 367.281 0 0 0 439.612 67.749 A 306.913 306.913 0 0 0 437.744 68.75 A 58.651 58.651 0 0 1 436.905 69.196 Q 435.768 69.786 435.183 70.01 A 5.151 5.151 0 0 1 435.156 70.02 A 20.497 20.497 0 0 1 433.187 71.003 A 24.616 24.616 0 0 1 432.129 71.436 A 83.553 83.553 0 0 1 428.711 72.656 A 29.201 29.201 0 0 1 425.672 73.495 A 26.708 26.708 0 0 1 425.244 73.584 Q 423.685 73.896 422.411 73.923 A 11.304 11.304 0 0 1 422.168 73.926 Q 420.536 73.926 419.354 73.503 A 5.181 5.181 0 0 1 418.652 73.193 Q 417.285 72.461 416.602 71.24 Q 415.918 70.02 415.674 68.311 A 13.732 13.732 0 0 1 415.538 66.366 A 15.474 15.474 0 0 1 415.625 64.746 A 454.739 454.739 0 0 1 413.599 66.357 A 553.63 553.63 0 0 1 411.426 68.066 A 45.998 45.998 0 0 1 406.738 71.289 Q 404.297 72.754 401.758 73.828 A 13.169 13.169 0 0 1 396.582 74.902 Q 395.117 74.902 393.945 74.17 A 3.667 3.667 0 0 1 392.635 72.73 A 5.115 5.115 0 0 1 392.285 71.875 L 392.285 70.41 L 392.285 68.848 Q 390.625 62.988 391.846 57.324 A 27.857 27.857 0 0 1 396.24 47.119 Q 399.414 42.578 404.346 39.502 Q 409.277 36.426 415.137 35.742 Z M 51.172 66.309 L 51.66 59.57 A 20.723 20.723 0 0 0 51.771 59.226 Q 51.964 58.612 52.295 57.471 A 81.433 81.433 0 0 0 52.734 55.896 A 100.353 100.353 0 0 0 53.174 54.199 A 99.914 99.914 0 0 0 53.775 51.658 A 86.496 86.496 0 0 0 53.955 50.83 Q 54.251 49.436 54.437 48.809 A 5.636 5.636 0 0 1 54.492 48.633 A 93.815 93.815 0 0 1 55.139 46.191 A 120.654 120.654 0 0 1 55.908 43.555 A 21.093 21.093 0 0 1 58.203 38.477 Q 59.668 36.133 61.963 34.619 Q 64.197 33.145 67.496 33.107 A 15.236 15.236 0 0 1 67.676 33.105 A 2.719 2.719 0 0 1 68.365 33.187 A 1.754 1.754 0 0 1 69.482 34.033 A 12.421 12.421 0 0 1 70.336 35.835 A 13.773 13.773 0 0 1 70.41 36.035 Q 70.41 36.426 70.459 37.451 A 89.612 89.612 0 0 1 70.48 37.911 Q 70.501 38.416 70.506 38.708 A 9.329 9.329 0 0 1 70.508 38.867 A 36.436 36.436 0 0 1 70.349 42.355 Q 70.172 44.195 69.797 45.802 A 21.681 21.681 0 0 1 69.678 46.289 A 21.091 21.091 0 0 1 67.139 52.246 A 27.668 27.668 0 0 1 63.291 57.073 A 30.648 30.648 0 0 1 62.988 57.373 A 88.528 88.528 0 0 1 60.376 59.827 A 115.786 115.786 0 0 1 57.422 62.402 A 9.656 9.656 0 0 0 57.367 62.573 Q 57.275 62.866 57.129 63.379 A 9.923 9.923 0 0 0 57.044 63.695 Q 56.936 64.126 56.934 64.346 A 0.91 0.91 0 0 0 56.934 64.355 L 56.934 64.551 A 8.618 8.618 0 0 0 57.003 65.679 Q 57.079 66.256 57.24 66.736 A 4.014 4.014 0 0 0 57.52 67.383 Q 58.105 68.457 59.131 69.092 Q 60.156 69.727 61.475 69.873 A 23.512 23.512 0 0 0 63.035 69.991 A 30.046 30.046 0 0 0 64.355 70.02 A 30.206 30.206 0 0 0 73.145 68.75 A 22.658 22.658 0 0 0 80.859 64.648 A 9.417 9.417 0 0 0 81.188 64.3 Q 81.522 63.931 81.941 63.408 A 32.564 32.564 0 0 0 82.08 63.232 A 376.304 376.304 0 0 1 83.545 61.389 A 393.351 393.351 0 0 1 83.594 61.328 A 12.246 12.246 0 0 1 84.821 60.001 A 10.763 10.763 0 0 1 85.254 59.619 A 3.44 3.44 0 0 1 85.999 59.138 A 2.599 2.599 0 0 1 87.109 58.887 A 2.423 2.423 0 0 1 87.125 58.887 Q 88.087 58.893 88.281 59.668 A 6.421 6.421 0 0 1 88.477 61.23 Q 88.477 63.379 87.158 65.283 A 13.561 13.561 0 0 1 84.801 67.869 A 16.305 16.305 0 0 1 83.74 68.701 Q 81.641 70.215 78.955 71.387 Q 76.27 72.559 73.633 73.34 Q 70.996 74.121 68.604 74.512 Q 66.211 74.902 64.551 74.902 A 26.057 26.057 0 0 1 60.909 74.662 Q 58.961 74.387 57.328 73.796 A 13.916 13.916 0 0 1 55.908 73.193 A 7.714 7.714 0 0 1 52.774 70.287 Q 52.052 69.139 51.553 67.638 A 17.238 17.238 0 0 1 51.172 66.309 Z M 355.078 66.309 L 355.566 59.57 A 20.723 20.723 0 0 0 355.677 59.226 Q 355.87 58.612 356.201 57.471 A 81.433 81.433 0 0 0 356.641 55.896 A 100.353 100.353 0 0 0 357.08 54.199 A 99.914 99.914 0 0 0 357.681 51.658 A 86.496 86.496 0 0 0 357.861 50.83 Q 358.157 49.436 358.343 48.809 A 5.636 5.636 0 0 1 358.398 48.633 A 93.815 93.815 0 0 1 359.045 46.191 A 120.654 120.654 0 0 1 359.814 43.555 A 21.093 21.093 0 0 1 362.109 38.477 Q 363.574 36.133 365.869 34.619 Q 368.104 33.145 371.403 33.107 A 15.236 15.236 0 0 1 371.582 33.105 A 2.719 2.719 0 0 1 372.271 33.187 A 1.754 1.754 0 0 1 373.389 34.033 A 12.421 12.421 0 0 1 374.242 35.835 A 13.773 13.773 0 0 1 374.316 36.035 Q 374.316 36.426 374.365 37.451 A 89.612 89.612 0 0 1 374.386 37.911 Q 374.408 38.416 374.413 38.708 A 9.329 9.329 0 0 1 374.414 38.867 A 36.436 36.436 0 0 1 374.255 42.355 Q 374.078 44.195 373.703 45.802 A 21.681 21.681 0 0 1 373.584 46.289 A 21.091 21.091 0 0 1 371.045 52.246 A 27.668 27.668 0 0 1 367.197 57.073 A 30.648 30.648 0 0 1 366.895 57.373 A 88.528 88.528 0 0 1 364.282 59.827 A 115.786 115.786 0 0 1 361.328 62.402 A 9.656 9.656 0 0 0 361.273 62.573 Q 361.182 62.866 361.035 63.379 A 9.923 9.923 0 0 0 360.95 63.695 Q 360.842 64.126 360.84 64.346 A 0.91 0.91 0 0 0 360.84 64.355 L 360.84 64.551 A 8.618 8.618 0 0 0 360.909 65.679 Q 360.986 66.256 361.146 66.736 A 4.014 4.014 0 0 0 361.426 67.383 Q 362.012 68.457 363.037 69.092 Q 364.063 69.727 365.381 69.873 A 23.512 23.512 0 0 0 366.941 69.991 A 30.046 30.046 0 0 0 368.262 70.02 A 30.206 30.206 0 0 0 377.051 68.75 A 22.658 22.658 0 0 0 384.766 64.648 A 9.417 9.417 0 0 0 385.095 64.3 Q 385.428 63.931 385.847 63.408 A 32.564 32.564 0 0 0 385.986 63.232 A 376.304 376.304 0 0 1 387.451 61.389 A 393.351 393.351 0 0 1 387.5 61.328 A 12.246 12.246 0 0 1 388.727 60.001 A 10.763 10.763 0 0 1 389.16 59.619 A 3.44 3.44 0 0 1 389.905 59.138 A 2.599 2.599 0 0 1 391.016 58.887 A 2.423 2.423 0 0 1 391.031 58.887 Q 391.994 58.893 392.188 59.668 A 6.421 6.421 0 0 1 392.383 61.23 Q 392.383 63.379 391.064 65.283 A 13.561 13.561 0 0 1 388.707 67.869 A 16.305 16.305 0 0 1 387.647 68.701 Q 385.547 70.215 382.861 71.387 Q 380.176 72.559 377.539 73.34 Q 374.902 74.121 372.51 74.512 Q 370.117 74.902 368.457 74.902 A 26.057 26.057 0 0 1 364.816 74.662 Q 362.867 74.387 361.234 73.796 A 13.916 13.916 0 0 1 359.814 73.193 A 7.714 7.714 0 0 1 356.68 70.287 Q 355.958 69.139 355.459 67.638 A 17.238 17.238 0 0 1 355.078 66.309 Z M 449.503 56.592 A 7.414 7.414 0 0 0 449.512 56.25 Q 449.121 53.418 450.586 50.684 Q 452.051 47.949 454.395 45.85 A 18.506 18.506 0 0 1 455.285 45.1 A 15.738 15.738 0 0 1 459.424 42.725 A 11.782 11.782 0 0 1 459.624 42.65 Q 461.172 42.091 462.504 42.11 A 5.446 5.446 0 0 1 464.16 42.383 A 2.004 2.004 0 0 1 464.701 42.463 Q 464.952 42.534 465.229 42.666 A 5.291 5.291 0 0 1 465.772 42.969 A 15.186 15.186 0 0 1 466.293 43.314 A 17.632 17.632 0 0 1 467.627 44.336 A 14.576 14.576 0 0 1 467.742 44.434 A 13.252 13.252 0 0 1 469.287 45.996 Q 469.814 46.628 469.962 47.058 A 0.948 0.948 0 0 1 470.02 47.363 Q 470.02 48.45 469.406 49.843 A 13.247 13.247 0 0 1 468.75 51.123 A 26.96 26.96 0 0 1 467.518 53.055 A 33.716 33.716 0 0 1 465.576 55.566 A 49.359 49.359 0 0 1 464.072 57.258 A 59.942 59.942 0 0 1 461.23 60.107 A 72.579 72.579 0 0 1 459.413 61.76 A 60.26 60.26 0 0 1 456.445 64.209 A 35.825 35.825 0 0 1 454.15 65.845 A 26.542 26.542 0 0 1 451.953 67.139 Q 450.51 67.893 449.419 68.141 A 4.458 4.458 0 0 1 448.438 68.262 A 2.057 2.057 0 0 1 448.438 68.234 Q 448.44 68.06 448.47 67.558 A 80.657 80.657 0 0 1 448.486 67.285 A 93.602 93.602 0 0 0 448.492 67.187 Q 448.535 66.491 448.535 66.309 A 17.932 17.932 0 0 0 448.537 66.296 Q 448.61 65.785 448.709 64.871 A 123.74 123.74 0 0 0 448.779 64.209 A 222.969 222.969 0 0 0 448.926 62.744 A 270.126 270.126 0 0 0 449.072 61.182 Q 449.219 59.57 449.365 58.203 A 56.545 56.545 0 0 0 449.388 57.992 Q 449.478 57.116 449.503 56.592 Z M 93.652 67.188 L 93.652 69.824 A 9.078 9.078 0 0 0 95.788 69.554 Q 97.137 69.227 98.633 68.506 A 32.679 32.679 0 0 0 103.012 65.944 A 36.951 36.951 0 0 0 104.004 65.234 A 40.315 40.315 0 0 0 108.244 61.629 A 36.713 36.713 0 0 0 108.789 61.084 A 40.059 40.059 0 0 0 110.256 59.506 Q 110.92 58.749 111.449 58.053 A 18.433 18.433 0 0 0 112.109 57.129 A 24.354 24.354 0 0 1 112.939 51.514 A 20.876 20.876 0 0 0 113.672 45.996 Q 113.672 45.801 113.623 45.41 A 10.5 10.5 0 0 1 113.602 45.227 Q 113.574 44.971 113.574 44.824 A 10.531 10.531 0 0 0 112.891 44.29 Q 112.202 43.798 111.65 43.617 A 2.365 2.365 0 0 0 111.426 43.555 Q 110.587 43.368 109.215 43.36 A 21.371 21.371 0 0 0 109.082 43.359 L 108.252 43.359 A 6.509 6.509 0 0 0 107.995 43.364 Q 107.628 43.379 107.465 43.439 A 0.424 0.424 0 0 0 107.422 43.457 Q 106.836 43.945 105.469 45.264 A 108.356 108.356 0 0 0 104.065 46.643 A 132.807 132.807 0 0 0 102.588 48.145 A 1958.994 1958.994 0 0 0 101.123 49.658 A 1598.78 1598.78 0 0 0 99.756 51.074 A 454.65 454.65 0 0 1 99.184 51.667 Q 98.323 52.556 97.949 52.93 A 0.116 0.116 0 0 0 97.897 52.946 Q 97.791 53.002 97.574 53.253 A 5.284 5.284 0 0 0 97.559 53.271 A 8.512 8.512 0 0 0 97.293 53.599 Q 97.16 53.77 97.019 53.967 A 15.315 15.315 0 0 0 96.924 54.102 A 12.083 12.083 0 0 0 96.606 54.578 A 9.36 9.36 0 0 0 96.338 55.029 Q 96.105 55.449 96.005 55.735 A 2.145 2.145 0 0 0 95.996 55.762 L 93.652 67.188 Z M 258.984 67.188 L 258.984 69.824 A 9.078 9.078 0 0 0 261.12 69.554 Q 262.47 69.227 263.965 68.506 A 32.679 32.679 0 0 0 268.344 65.944 A 36.951 36.951 0 0 0 269.336 65.234 A 40.315 40.315 0 0 0 273.576 61.629 A 36.713 36.713 0 0 0 274.121 61.084 A 40.059 40.059 0 0 0 275.588 59.506 Q 276.252 58.749 276.781 58.053 A 18.433 18.433 0 0 0 277.441 57.129 A 24.354 24.354 0 0 1 278.272 51.514 A 20.876 20.876 0 0 0 279.004 45.996 Q 279.004 45.801 278.955 45.41 A 10.5 10.5 0 0 1 278.934 45.227 Q 278.906 44.971 278.906 44.824 A 10.531 10.531 0 0 0 278.223 44.29 Q 277.534 43.798 276.982 43.617 A 2.365 2.365 0 0 0 276.758 43.555 Q 275.919 43.368 274.547 43.36 A 21.371 21.371 0 0 0 274.414 43.359 L 273.584 43.359 A 6.509 6.509 0 0 0 273.327 43.364 Q 272.96 43.379 272.797 43.439 A 0.424 0.424 0 0 0 272.754 43.457 Q 272.168 43.945 270.801 45.264 A 108.356 108.356 0 0 0 269.397 46.643 A 132.807 132.807 0 0 0 267.92 48.145 A 1958.994 1958.994 0 0 0 266.455 49.658 A 1598.78 1598.78 0 0 0 265.088 51.074 A 454.65 454.65 0 0 1 264.516 51.667 Q 263.655 52.556 263.281 52.93 A 0.116 0.116 0 0 0 263.229 52.946 Q 263.123 53.002 262.906 53.253 A 5.284 5.284 0 0 0 262.891 53.271 A 8.512 8.512 0 0 0 262.625 53.599 Q 262.492 53.77 262.351 53.967 A 15.315 15.315 0 0 0 262.256 54.102 A 12.083 12.083 0 0 0 261.939 54.578 A 9.36 9.36 0 0 0 261.67 55.029 Q 261.437 55.449 261.337 55.735 A 2.145 2.145 0 0 0 261.328 55.762 L 258.984 67.188 Z M 397.559 67.188 L 397.559 69.824 A 9.078 9.078 0 0 0 399.694 69.554 Q 401.044 69.227 402.539 68.506 A 32.679 32.679 0 0 0 406.918 65.944 A 36.951 36.951 0 0 0 407.91 65.234 A 40.315 40.315 0 0 0 412.151 61.629 A 36.713 36.713 0 0 0 412.695 61.084 A 40.059 40.059 0 0 0 414.162 59.506 Q 414.827 58.749 415.355 58.053 A 18.433 18.433 0 0 0 416.016 57.129 A 24.354 24.354 0 0 1 416.846 51.514 A 20.876 20.876 0 0 0 417.578 45.996 Q 417.578 45.801 417.529 45.41 A 10.5 10.5 0 0 1 417.508 45.227 Q 417.48 44.971 417.48 44.824 A 10.531 10.531 0 0 0 416.798 44.29 Q 416.108 43.798 415.556 43.617 A 2.365 2.365 0 0 0 415.332 43.555 Q 414.493 43.368 413.121 43.36 A 21.371 21.371 0 0 0 412.988 43.359 L 412.158 43.359 A 6.509 6.509 0 0 0 411.902 43.364 Q 411.534 43.379 411.371 43.439 A 0.424 0.424 0 0 0 411.328 43.457 Q 410.742 43.945 409.375 45.264 A 108.356 108.356 0 0 0 407.971 46.643 A 132.807 132.807 0 0 0 406.494 48.145 A 1958.994 1958.994 0 0 0 405.029 49.658 A 1598.78 1598.78 0 0 0 403.662 51.074 A 454.65 454.65 0 0 1 403.09 51.667 Q 402.229 52.556 401.855 52.93 A 0.116 0.116 0 0 0 401.803 52.946 Q 401.698 53.002 401.48 53.253 A 5.284 5.284 0 0 0 401.465 53.271 A 8.512 8.512 0 0 0 401.199 53.599 Q 401.067 53.77 400.925 53.967 A 15.315 15.315 0 0 0 400.83 54.102 A 12.083 12.083 0 0 0 400.513 54.578 A 9.36 9.36 0 0 0 400.244 55.029 Q 400.011 55.449 399.912 55.735 A 2.145 2.145 0 0 0 399.902 55.762 L 397.559 67.188 Z M 319.238 33.301 L 319.727 33.789 A 3.828 3.828 0 0 0 320.496 33.168 Q 320.819 32.835 321.124 32.394 A 8.702 8.702 0 0 0 321.533 31.738 Q 322.363 30.273 323.047 28.223 A 47.635 47.635 0 0 0 323.99 25.009 A 54.245 54.245 0 0 0 324.268 23.877 A 80.318 80.318 0 0 0 325.195 19.336 A 116.962 116.962 0 0 0 325.549 17.187 A 87.035 87.035 0 0 0 325.83 15.234 Q 326.074 13.379 326.074 12.207 Q 326.074 11.887 326.041 11.106 A 109.155 109.155 0 0 0 326.025 10.742 Q 325.978 9.692 325.883 9.482 A 0.245 0.245 0 0 0 325.879 9.473 L 325.391 8.496 A 12.984 12.984 0 0 0 321.858 12.732 A 12.697 12.697 0 0 0 321.777 12.891 A 22.107 22.107 0 0 0 319.922 18.164 A 32.085 32.085 0 0 0 319.238 23.828 A 181.179 181.179 0 0 0 319.165 26.685 A 154.575 154.575 0 0 0 319.141 29.395 L 319.141 30.371 A 16.931 16.931 0 0 0 319.156 31.109 A 13.498 13.498 0 0 0 319.189 31.641 A 14.941 14.941 0 0 1 319.226 32.202 A 11.31 11.31 0 0 1 319.238 32.715 L 319.238 33.301 Z M 63.173 42.765 A 17.53 17.53 0 0 0 62.549 43.506 A 13.085 13.085 0 0 0 61.235 45.499 A 11.396 11.396 0 0 0 60.791 46.436 A 21.815 21.815 0 0 0 59.956 48.817 A 25.362 25.362 0 0 0 59.717 49.707 Q 59.339 51.218 58.925 53.161 A 151.779 151.779 0 0 0 58.789 53.809 A 24.345 24.345 0 0 0 60.438 52.39 Q 61.223 51.646 61.846 50.903 A 14.951 14.951 0 0 0 61.865 50.879 A 16.241 16.241 0 0 0 63.446 48.633 A 14.332 14.332 0 0 0 63.867 47.852 A 14.177 14.177 0 0 0 65.014 44.595 A 15.7 15.7 0 0 0 65.039 44.482 A 26.873 26.873 0 0 0 65.362 42.671 Q 65.521 41.577 65.625 40.332 Q 64.168 41.644 63.173 42.765 Z M 367.079 42.765 A 17.53 17.53 0 0 0 366.455 43.506 A 13.085 13.085 0 0 0 365.142 45.499 A 11.396 11.396 0 0 0 364.697 46.436 A 21.815 21.815 0 0 0 363.863 48.817 A 25.362 25.362 0 0 0 363.623 49.707 Q 363.245 51.218 362.832 53.161 A 151.779 151.779 0 0 0 362.695 53.809 A 24.345 24.345 0 0 0 364.344 52.39 Q 365.13 51.646 365.752 50.903 A 14.951 14.951 0 0 0 365.772 50.879 A 16.241 16.241 0 0 0 367.352 48.633 A 14.332 14.332 0 0 0 367.773 47.852 A 14.177 14.177 0 0 0 368.921 44.595 A 15.7 15.7 0 0 0 368.945 44.482 A 26.873 26.873 0 0 0 369.269 42.671 Q 369.428 41.577 369.531 40.332 Q 368.074 41.644 367.079 42.765 Z" vector-effect="non-scaling-stroke"/></g></svg>