<svg xmlns="http://www.w3.org/2000/svg" xmlns:xlink="http://www.w3.org/1999/xlink" version="1.1" width="256" height="256" viewBox="0 0 256 256" xml:space="preserve"><defs></defs><g style="stroke: none; stroke-width: 0; stroke-dasharray: none; stroke-linecap: butt; stroke-linejoin: miter; stroke-miterlimit: 10; fill: none; fill-rule: nonzero; opacity: 1;" transform="translate(1.4065934065934016 1.4065934065934016) scale(2.81 2.81)" ><path d="M 57.116 85.586 c -0.574 0 -1.145 -0.246 -1.54 -0.723 C 52.954 81.704 49.1 79.892 45 79.892 c -4.099 0 -7.954 1.813 -10.576 4.972 c -0.706 0.851 -1.966 0.967 -2.816 0.262 s -0.967 -1.966 -0.262 -2.816 C 34.73 78.23 39.707 75.892 45 75.892 s 10.27 2.339 13.654 6.417 c 0.705 0.851 0.588 2.111 -0.262 2.816 C 58.02 85.435 57.566 85.586 57.116 85.586 z" style="stroke: none; stroke-width: 1; stroke-dasharray: none; stroke-linecap: butt; stroke-linejoin: miter; stroke-miterlimit: 10; fill: rgb(0,0,0); fill-rule: nonzero; opacity: 1;" transform=" matrix(1 0 0 1 0 0) " stroke-linecap="round" /><circle cx="70.583" cy="39.733000000000004" r="19.413" style="stroke: none; stroke-width: 1; stroke-dasharray: none; stroke-linecap: butt; stroke-linejoin: miter; stroke-miterlimit: 10; fill: rgb(0,0,0); fill-rule: nonzero; opacity: 1;" transform="  matrix(1 0 0 1 0 0) "/><circle cx="70.59" cy="31.16" r="6.48" style="stroke: none; stroke-width: 1; stroke-dasharray: none; stroke-linecap: butt; stroke-linejoin: miter; stroke-miterlimit: 10; fill: rgb(255,255,255); fill-rule: nonzero; opacity: 1;" transform="  matrix(1 0 0 1 0 0) "/><circle cx="19.413" cy="39.733000000000004" r="19.413" style="stroke: none; stroke-width: 1; stroke-dasharray: none; stroke-linecap: butt; stroke-linejoin: miter; stroke-miterlimit: 10; fill: rgb(0,0,0); fill-rule: nonzero; opacity: 1;" transform="  matrix(1 0 0 1 0 0) "/><circle cx="19.41" cy="31.16" r="6.48" style="stroke: none; stroke-width: 1; stroke-dasharray: none; stroke-linecap: butt; stroke-linejoin: miter; stroke-miterlimit: 10; fill: rgb(255,255,255); fill-rule: nonzero; opacity: 1;" transform="  matrix(1 0 0 1 0 0) "/><path d="M 33.209 19.118 c -0.234 0 -0.472 -0.042 -0.705 -0.129 L 4.085 8.286 C 3.051 7.896 2.529 6.743 2.918 5.709 c 0.389 -1.033 1.539 -1.557 2.577 -1.167 l 28.42 10.703 c 1.034 0.389 1.556 1.543 1.167 2.577 C 34.78 18.624 34.019 19.118 33.209 19.118 z" style="stroke: none; stroke-width: 1; stroke-dasharray: none; stroke-linecap: butt; stroke-linejoin: miter; stroke-miterlimit: 10; fill: rgb(0,0,0); fill-rule: nonzero; opacity: 1;" transform=" matrix(1 0 0 1 0 0) " stroke-linecap="round" /><path d="M 56.79 19.118 c -0.809 0 -1.569 -0.494 -1.872 -1.295 c -0.389 -1.034 0.134 -2.188 1.167 -2.577 l 28.42 -10.703 c 1.034 -0.39 2.187 0.133 2.577 1.167 c 0.389 1.034 -0.134 2.188 -1.167 2.577 l -28.42 10.703 C 57.263 19.076 57.024 19.118 56.79 19.118 z" style="stroke: none; stroke-width: 1; stroke-dasharray: none; stroke-linecap: butt; stroke-linejoin: miter; stroke-miterlimit: 10; fill: rgb(0,0,0); fill-rule: nonzero; opacity: 1;" transform=" matrix(1 0 0 1 0 0) " stroke-linecap="round" /></g></svg>