<svg xmlns="http://www.w3.org/2000/svg" xmlns:xlink="http://www.w3.org/1999/xlink" version="1.1" width="256" height="256" viewBox="0 0 256 256" xml:space="preserve"><defs></defs><g style="stroke: none; stroke-width: 0; stroke-dasharray: none; stroke-linecap: butt; stroke-linejoin: miter; stroke-miterlimit: 10; fill: none; fill-rule: nonzero; opacity: 1;" transform="translate(1.4065934065934016 1.4065934065934016) scale(2.81 2.81)" ><path d="M 45 85.586 c -5.293 0 -10.27 -2.339 -13.654 -6.417 c -0.706 -0.851 -0.588 -2.111 0.262 -2.816 c 0.85 -0.704 2.111 -0.588 2.816 0.262 c 2.622 3.159 6.477 4.972 10.576 4.972 c 4.1 0 7.954 -1.813 10.576 -4.972 c 0.705 -0.85 1.966 -0.966 2.816 -0.262 c 0.85 0.705 0.967 1.966 0.262 2.816 C 55.27 83.247 50.293 85.586 45 85.586 z" style="stroke: none; stroke-width: 1; stroke-dasharray: none; stroke-linecap: butt; stroke-linejoin: miter; stroke-miterlimit: 10; fill: rgb(0,0,0); fill-rule: nonzero; opacity: 1;" transform=" matrix(1 0 0 1 0 0) " stroke-linecap="round" /><circle cx="70.583" cy="39.733000000000004" r="19.413" style="stroke: none; stroke-width: 1; stroke-dasharray: none; stroke-linecap: butt; stroke-linejoin: miter; stroke-miterlimit: 10; fill: rgb(0,0,0); fill-rule: nonzero; opacity: 1;" transform="  matrix(1 0 0 1 0 0) "/><circle cx="70.59" cy="31.16" r="6.48" style="stroke: none; stroke-width: 1; stroke-dasharray: none; stroke-linecap: butt; stroke-linejoin: miter; stroke-miterlimit: 10; fill: rgb(255,255,255); fill-rule: nonzero; opacity: 1;" transform="  matrix(1 0 0 1 0 0) "/><path d="M 83.391 13.382 c -0.481 0 -0.965 -0.173 -1.349 -0.524 c -3.135 -2.866 -7.201 -4.444 -11.451 -4.444 c -4.242 0 -8.305 1.574 -11.438 4.431 c -0.816 0.746 -2.081 0.686 -2.825 -0.13 c -0.744 -0.816 -0.687 -2.082 0.13 -2.826 c 3.873 -3.531 8.893 -5.475 14.134 -5.475 c 5.251 0 10.276 1.951 14.15 5.492 c 0.815 0.745 0.872 2.01 0.127 2.826 C 84.474 13.163 83.933 13.382 83.391 13.382 z" style="stroke: none; stroke-width: 1; stroke-dasharray: none; stroke-linecap: butt; stroke-linejoin: miter; stroke-miterlimit: 10; fill: rgb(0,0,0); fill-rule: nonzero; opacity: 1;" transform=" matrix(1 0 0 1 0 0) " stroke-linecap="round" /><circle cx="19.413" cy="39.733000000000004" r="19.413" style="stroke: none; stroke-width: 1; stroke-dasharray: none; stroke-linecap: butt; stroke-linejoin: miter; stroke-miterlimit: 10; fill: rgb(0,0,0); fill-rule: nonzero; opacity: 1;" transform="  matrix(1 0 0 1 0 0) "/><circle cx="19.41" cy="31.16" r="6.48" style="stroke: none; stroke-width: 1; stroke-dasharray: none; stroke-linecap: butt; stroke-linejoin: miter; stroke-miterlimit: 10; fill: rgb(255,255,255); fill-rule: nonzero; opacity: 1;" transform="  matrix(1 0 0 1 0 0) "/><path d="M 32.218 13.382 c -0.482 0 -0.965 -0.173 -1.349 -0.524 c -3.135 -2.866 -7.202 -4.444 -11.451 -4.444 c -4.242 0 -8.305 1.574 -11.438 4.431 c -0.816 0.745 -2.081 0.686 -2.826 -0.13 c -0.744 -0.816 -0.686 -2.081 0.13 -2.826 c 3.872 -3.531 8.892 -5.475 14.133 -5.475 c 5.251 0 10.276 1.951 14.15 5.492 c 0.815 0.745 0.872 2.01 0.126 2.826 C 33.3 13.163 32.76 13.382 32.218 13.382 z" style="stroke: none; stroke-width: 1; stroke-dasharray: none; stroke-linecap: butt; stroke-linejoin: miter; stroke-miterlimit: 10; fill: rgb(0,0,0); fill-rule: nonzero; opacity: 1;" transform=" matrix(1 0 0 1 0 0) " stroke-linecap="round" /></g></svg>