<svg xmlns="http://www.w3.org/2000/svg" xmlns:xlink="http://www.w3.org/1999/xlink" version="1.1" width="256" height="256" viewBox="0 0 256 256" xml:space="preserve"><defs></defs><g style="stroke: none; stroke-width: 0; stroke-dasharray: none; stroke-linecap: butt; stroke-linejoin: miter; stroke-miterlimit: 10; fill: none; fill-rule: nonzero; opacity: 1;" transform="translate(1.4065934065934016 1.4065934065934016) scale(2.81 2.81)" ><circle cx="70.583" cy="42.863" r="19.413" style="stroke: none; stroke-width: 1; stroke-dasharray: none; stroke-linecap: butt; stroke-linejoin: miter; stroke-miterlimit: 10; fill: rgb(0,0,0); fill-rule: nonzero; opacity: 1;" transform="  matrix(1 0 0 1 0 0) "/><circle cx="70.59" cy="34.3" r="6.48" style="stroke: none; stroke-width: 1; stroke-dasharray: none; stroke-linecap: butt; stroke-linejoin: miter; stroke-miterlimit: 10; fill: rgb(255,255,255); fill-rule: nonzero; opacity: 1;" transform="  matrix(1 0 0 1 0 0) "/><path d="M 83.391 16.514 c -0.481 0 -0.965 -0.173 -1.349 -0.524 c -3.135 -2.866 -7.202 -4.444 -11.451 -4.444 c -4.243 0 -8.305 1.574 -11.438 4.431 c -0.816 0.745 -2.081 0.686 -2.825 -0.13 s -0.687 -2.081 0.13 -2.826 c 3.872 -3.531 8.892 -5.475 14.134 -5.475 c 5.251 0 10.276 1.95 14.15 5.492 c 0.815 0.745 0.872 2.01 0.127 2.825 C 84.474 16.295 83.933 16.514 83.391 16.514 z" style="stroke: none; stroke-width: 1; stroke-dasharray: none; stroke-linecap: butt; stroke-linejoin: miter; stroke-miterlimit: 10; fill: rgb(0,0,0); fill-rule: nonzero; opacity: 1;" transform=" matrix(1 0 0 1 0 0) " stroke-linecap="round" /><circle cx="19.413" cy="42.863" r="19.413" style="stroke: none; stroke-width: 1; stroke-dasharray: none; stroke-linecap: butt; stroke-linejoin: miter; stroke-miterlimit: 10; fill: rgb(0,0,0); fill-rule: nonzero; opacity: 1;" transform="  matrix(1 0 0 1 0 0) "/><circle cx="19.41" cy="34.3" r="6.48" style="stroke: none; stroke-width: 1; stroke-dasharray: none; stroke-linecap: butt; stroke-linejoin: miter; stroke-miterlimit: 10; fill: rgb(255,255,255); fill-rule: nonzero; opacity: 1;" transform="  matrix(1 0 0 1 0 0) "/><path d="M 32.218 16.514 c -0.482 0 -0.965 -0.173 -1.349 -0.524 c -3.135 -2.866 -7.202 -4.444 -11.452 -4.444 c -4.243 0 -8.305 1.574 -11.438 4.431 c -0.816 0.745 -2.081 0.686 -2.825 -0.13 c -0.745 -0.816 -0.687 -2.081 0.13 -2.825 c 3.872 -3.531 8.891 -5.476 14.133 -5.476 c 5.25 0 10.276 1.95 14.15 5.492 c 0.815 0.745 0.873 2.01 0.127 2.825 C 33.3 16.295 32.76 16.514 32.218 16.514 z" style="stroke: none; stroke-width: 1; stroke-dasharray: none; stroke-linecap: butt; stroke-linejoin: miter; stroke-miterlimit: 10; fill: rgb(0,0,0); fill-rule: nonzero; opacity: 1;" transform=" matrix(1 0 0 1 0 0) " stroke-linecap="round" /><path d="M 60.351 82.454 c -2.372 0 -4.638 -1.458 -6.732 -4.333 c -0.895 -1.227 -2.228 -2.688 -3.501 -2.688 c -1.274 0 -2.607 1.462 -3.501 2.688 c -2.095 2.875 -4.36 4.333 -6.733 4.333 c -2.373 0 -4.638 -1.458 -6.733 -4.333 c -0.894 -1.227 -2.227 -2.688 -3.501 -2.688 s -2.606 1.462 -3.5 2.688 c -0.651 0.893 -1.901 1.088 -2.794 0.438 c -0.893 -0.65 -1.089 -1.901 -0.438 -2.794 c 2.095 -2.875 4.36 -4.333 6.733 -4.333 s 4.638 1.458 6.733 4.333 c 0.894 1.227 2.227 2.688 3.501 2.688 c 1.274 0 2.606 -1.462 3.5 -2.688 c 2.095 -2.875 4.36 -4.333 6.732 -4.333 c 2.373 0 4.639 1.458 6.734 4.333 c 0.894 1.227 2.227 2.688 3.5 2.688 c 1.274 0 2.607 -1.462 3.501 -2.688 c 0.649 -0.892 1.899 -1.089 2.794 -0.438 c 0.893 0.65 1.089 1.901 0.438 2.794 C 64.989 80.996 62.724 82.454 60.351 82.454 z" style="stroke: none; stroke-width: 1; stroke-dasharray: none; stroke-linecap: butt; stroke-linejoin: miter; stroke-miterlimit: 10; fill: rgb(0,0,0); fill-rule: nonzero; opacity: 1;" transform=" matrix(1 0 0 1 0 0) " stroke-linecap="round" /></g></svg>