<svg xmlns="http://www.w3.org/2000/svg" xmlns:xlink="http://www.w3.org/1999/xlink" version="1.1" width="256" height="256" viewBox="0 0 256 256" xml:space="preserve"><defs></defs><g style="stroke: none; stroke-width: 0; stroke-dasharray: none; stroke-linecap: butt; stroke-linejoin: miter; stroke-miterlimit: 10; fill: none; fill-rule: nonzero; opacity: 1;" transform="translate(1.4065934065934016 1.4065934065934016) scale(2.81 2.81)" ><circle cx="70.583" cy="40.733000000000004" r="19.413" style="stroke: none; stroke-width: 1; stroke-dasharray: none; stroke-linecap: butt; stroke-linejoin: miter; stroke-miterlimit: 10; fill: rgb(0,0,0); fill-rule: nonzero; opacity: 1;" transform="  matrix(1 0 0 1 0 0) "/><circle cx="70.59" cy="32.16" r="6.48" style="stroke: none; stroke-width: 1; stroke-dasharray: none; stroke-linecap: butt; stroke-linejoin: miter; stroke-miterlimit: 10; fill: rgb(255,255,255); fill-rule: nonzero; opacity: 1;" transform="  matrix(1 0 0 1 0 0) "/><path d="M 70.591 14.383 c -5.241 0 -10.261 -1.944 -14.134 -5.475 c -0.816 -0.744 -0.874 -2.009 -0.13 -2.826 c 0.744 -0.815 2.009 -0.875 2.825 -0.13 c 3.134 2.857 7.196 4.431 11.438 4.431 c 4.25 0 8.316 -1.579 11.451 -4.444 c 0.815 -0.746 2.081 -0.689 2.826 0.126 c 0.745 0.815 0.688 2.081 -0.127 2.826 C 80.867 12.432 75.842 14.383 70.591 14.383 z" style="stroke: none; stroke-width: 1; stroke-dasharray: none; stroke-linecap: butt; stroke-linejoin: miter; stroke-miterlimit: 10; fill: rgb(0,0,0); fill-rule: nonzero; opacity: 1;" transform=" matrix(1 0 0 1 0 0) " stroke-linecap="round" /><circle cx="19.413" cy="40.733000000000004" r="19.413" style="stroke: none; stroke-width: 1; stroke-dasharray: none; stroke-linecap: butt; stroke-linejoin: miter; stroke-miterlimit: 10; fill: rgb(0,0,0); fill-rule: nonzero; opacity: 1;" transform="  matrix(1 0 0 1 0 0) "/><circle cx="19.41" cy="32.16" r="6.48" style="stroke: none; stroke-width: 1; stroke-dasharray: none; stroke-linecap: butt; stroke-linejoin: miter; stroke-miterlimit: 10; fill: rgb(255,255,255); fill-rule: nonzero; opacity: 1;" transform="  matrix(1 0 0 1 0 0) "/><path d="M 32.218 14.383 c -0.482 0 -0.965 -0.173 -1.349 -0.524 c -3.135 -2.866 -7.202 -4.444 -11.451 -4.444 c -4.242 0 -8.305 1.574 -11.438 4.431 c -0.816 0.745 -2.081 0.686 -2.826 -0.13 c -0.744 -0.816 -0.686 -2.081 0.13 -2.826 c 3.872 -3.531 8.892 -5.475 14.133 -5.475 c 5.251 0 10.276 1.951 14.15 5.492 c 0.815 0.745 0.872 2.01 0.126 2.826 C 33.3 14.163 32.76 14.383 32.218 14.383 z" style="stroke: none; stroke-width: 1; stroke-dasharray: none; stroke-linecap: butt; stroke-linejoin: miter; stroke-miterlimit: 10; fill: rgb(0,0,0); fill-rule: nonzero; opacity: 1;" transform=" matrix(1 0 0 1 0 0) " stroke-linecap="round" /><circle cx="45.003" cy="76.583" r="8.003" style="stroke: none; stroke-width: 1; stroke-dasharray: none; stroke-linecap: butt; stroke-linejoin: miter; stroke-miterlimit: 10; fill: rgb(0,0,0); fill-rule: nonzero; opacity: 1;" transform="  matrix(1 0 0 1 0 0) "/></g></svg>